<svg id="svg" version="1.1" width="400" height="711.3846153846155" xmlns="http://www.w3.org/2000/svg" xmlns:xlink="http://www.w3.org/1999/xlink" style="display: block;"><g id="svgg"><path id="path0" d="M95.686 6.407 C 90.854 7.673,83.518 12.096,84.259 13.295 C 84.405 13.531,84.343 13.612,84.123 13.476 C 83.537 13.114,81.447 15.429,81.818 16.029 C 82.007 16.335,81.959 16.422,81.692 16.257 C 80.943 15.794,78.491 19.976,79.015 20.824 C 79.214 21.147,79.160 21.223,78.862 21.038 C 78.433 20.773,78.243 21.327,78.292 22.696 C 78.302 22.968,78.170 23.105,78.000 23.000 C 77.670 22.796,77.214 24.128,77.205 25.324 C 77.202 25.769,77.377 25.938,77.662 25.762 C 77.950 25.584,78.015 25.652,77.834 25.945 C 77.675 26.202,77.377 26.309,77.172 26.183 C 76.950 26.045,76.800 28.140,76.800 31.400 C 76.800 35.416,76.921 36.772,77.262 36.562 C 77.557 36.380,77.615 36.453,77.422 36.764 C 77.067 37.340,77.512 40.101,77.920 39.850 C 78.074 39.755,78.238 40.209,78.285 40.858 C 78.521 44.117,85.758 53.134,86.876 51.562 C 87.191 51.118,87.228 51.147,87.051 51.699 C 86.730 52.698,88.687 53.992,89.272 53.168 C 89.590 52.720,89.626 52.753,89.441 53.324 C 89.169 54.166,93.195 56.199,94.474 55.865 C 94.874 55.760,95.110 55.823,94.998 56.004 C 94.293 57.144,104.511 57.586,109.128 56.615 C 114.030 55.584,118.965 53.000,118.544 51.686 C 118.358 51.105,118.390 51.092,118.748 51.600 C 119.607 52.816,126.565 44.838,125.769 43.550 C 125.596 43.269,125.647 43.182,125.896 43.336 C 126.346 43.614,127.109 41.956,128.156 38.427 C 128.863 36.043,129.097 26.169,128.437 26.577 C 128.238 26.700,128.166 26.452,128.278 26.025 C 128.757 24.191,125.628 17.088,124.500 17.450 C 123.922 17.636,123.903 17.603,124.388 17.259 C 124.995 16.831,124.691 16.207,123.867 16.191 C 123.610 16.186,123.446 15.900,123.503 15.555 C 123.600 14.961,122.543 13.690,121.900 13.629 C 121.735 13.613,121.645 13.529,121.700 13.442 C 122.175 12.692,118.035 9.721,117.521 10.443 C 117.211 10.879,117.174 10.847,117.350 10.300 C 118.345 7.206,103.096 4.466,95.686 6.407 M298.094 5.883 C 297.596 5.979,297.284 6.212,297.401 6.401 C 297.517 6.590,297.402 6.875,297.145 7.034 C 296.852 7.215,296.784 7.150,296.962 6.862 C 297.378 6.189,296.448 6.289,293.795 7.202 C 290.576 8.309,287.980 9.883,288.243 10.567 C 288.359 10.871,288.232 11.257,287.959 11.425 C 287.614 11.639,287.541 11.530,287.719 11.066 C 287.860 10.700,287.846 10.406,287.687 10.413 C 287.135 10.437,283.002 14.334,283.257 14.590 C 283.399 14.732,284.164 14.180,284.957 13.363 C 285.751 12.546,286.400 12.050,286.400 12.260 C 286.400 12.911,283.694 15.305,283.261 15.037 C 282.429 14.523,278.522 21.098,278.968 22.261 C 279.091 22.580,279.023 22.738,278.817 22.611 C 277.646 21.887,276.730 32.530,277.587 36.907 C 281.902 58.960,312.882 64.829,325.420 45.969 C 326.447 44.425,327.312 42.737,327.344 42.219 C 327.375 41.701,327.509 41.344,327.643 41.427 C 328.193 41.766,329.277 37.143,329.485 33.567 C 329.726 29.445,329.356 25.056,328.798 25.401 C 328.610 25.518,328.325 25.402,328.166 25.145 C 327.985 24.852,328.050 24.784,328.338 24.962 C 328.847 25.276,328.921 24.692,328.549 23.304 C 328.417 22.812,328.122 22.525,327.893 22.666 C 327.641 22.822,327.597 22.728,327.783 22.427 C 328.275 21.631,326.829 18.822,326.053 19.068 C 325.499 19.244,325.489 19.212,325.990 18.858 C 326.754 18.319,324.506 14.936,323.499 15.111 C 323.148 15.171,322.747 15.039,322.609 14.815 C 322.462 14.577,322.614 14.507,322.979 14.647 C 324.245 15.133,323.536 14.007,321.457 12.231 C 319.414 10.486,318.464 9.932,319.000 10.800 C 319.136 11.020,319.037 11.200,318.781 11.200 C 318.524 11.200,318.416 10.936,318.540 10.613 C 318.844 9.819,318.010 9.358,317.518 10.049 C 317.217 10.470,317.180 10.428,317.360 9.874 C 317.549 9.289,317.106 8.926,315.081 8.008 C 312.070 6.643,309.315 6.015,309.804 6.806 C 310.016 7.149,309.966 7.226,309.655 7.034 C 309.398 6.875,309.277 6.599,309.387 6.421 C 309.825 5.712,301.136 5.298,298.094 5.883 M85.018 49.629 C 85.576 50.532,84.889 50.346,83.968 49.344 C 83.045 48.340,83.041 48.313,83.878 48.748 C 84.360 48.999,84.873 49.395,85.018 49.629 M98.000 103.191 C 97.230 103.358,96.870 103.540,97.200 103.595 C 97.530 103.650,97.260 103.832,96.600 104.000 C 95.940 104.168,131.130 104.300,174.800 104.293 C 218.470 104.286,253.674 104.202,253.030 104.107 C 252.221 103.987,252.024 103.833,252.390 103.606 C 253.564 102.881,245.519 102.753,211.400 102.955 C 191.820 103.071,175.170 103.165,174.400 103.165 C 173.630 103.164,156.440 103.102,136.200 103.026 C 115.960 102.950,98.770 103.024,98.000 103.191 M50.716 105.497 C 52.099 105.575,54.259 105.574,55.516 105.495 C 56.772 105.416,55.640 105.352,53.000 105.353 C 50.360 105.353,49.332 105.418,50.716 105.497 M70.400 113.000 C 71.595 114.210,72.663 115.200,72.773 115.200 C 72.883 115.200,71.995 114.210,70.800 113.000 C 69.605 111.790,68.537 110.800,68.427 110.800 C 68.317 110.800,69.205 111.790,70.400 113.000 M96.200 136.000 C 95.747 136.195,112.476 136.344,134.800 136.344 C 157.124 136.344,173.853 136.195,173.400 136.000 C 172.960 135.811,155.590 135.656,134.800 135.656 C 114.010 135.656,96.640 135.811,96.200 136.000 M51.705 153.487 C 52.314 153.579,53.214 153.577,53.705 153.482 C 54.197 153.387,53.700 153.311,52.600 153.314 C 51.500 153.317,51.097 153.395,51.705 153.487 M5.200 398.258 C 5.200 612.669,5.207 614.740,5.990 617.273 C 7.340 621.645,9.996 624.731,14.400 627.044 L 16.600 628.200 102.867 628.400 C 150.313 628.510,189.240 628.706,189.369 628.836 C 189.499 628.966,188.879 629.289,187.991 629.555 C 186.992 629.855,186.481 630.208,186.650 630.481 C 186.823 630.761,186.739 630.810,186.421 630.613 C 185.618 630.117,182.023 631.971,182.271 632.753 C 182.431 633.260,182.392 633.283,182.089 632.859 C 181.524 632.069,179.951 632.966,180.253 633.906 C 180.426 634.445,180.388 634.477,180.082 634.049 C 179.564 633.322,178.773 633.834,179.055 634.713 C 179.229 635.254,179.191 635.282,178.879 634.843 C 178.549 634.379,178.292 634.423,177.341 635.107 C 175.924 636.125,173.736 638.400,174.174 638.400 C 174.352 638.400,174.276 638.668,174.004 638.996 C 173.732 639.323,173.377 639.510,173.216 639.410 C 172.559 639.004,170.578 641.613,171.207 642.057 C 171.710 642.412,171.699 642.443,171.138 642.265 C 170.322 642.005,169.007 643.364,169.423 644.037 C 169.610 644.339,169.557 644.420,169.282 644.251 C 168.584 643.819,167.784 645.606,168.459 646.089 C 168.870 646.383,168.832 646.421,168.300 646.250 C 167.489 645.989,165.383 649.658,165.768 650.661 C 165.891 650.980,165.846 651.152,165.668 651.042 C 165.043 650.656,164.244 653.650,164.856 654.087 C 165.271 654.384,165.234 654.422,164.700 654.250 C 164.189 654.086,164.000 654.245,164.000 654.836 C 164.000 655.347,164.171 655.542,164.462 655.362 C 164.750 655.184,164.815 655.252,164.634 655.545 C 164.475 655.802,164.198 655.922,164.018 655.811 C 163.381 655.418,163.111 657.479,162.913 664.226 C 162.714 671.008,163.174 675.600,164.052 675.600 C 164.269 675.600,164.339 675.776,164.206 675.991 C 163.852 676.564,164.771 679.665,165.214 679.391 C 165.421 679.263,165.491 679.419,165.369 679.738 C 164.843 681.106,169.231 688.345,173.018 692.360 C 175.663 695.164,176.618 695.833,176.119 694.534 C 175.941 694.070,176.014 693.961,176.359 694.175 C 176.632 694.343,176.757 694.735,176.638 695.046 C 176.372 695.739,179.514 698.119,180.299 697.818 C 180.597 697.703,180.731 697.788,180.596 698.007 C 180.275 698.526,186.788 701.686,187.701 701.453 C 188.086 701.355,188.317 701.411,188.214 701.578 C 188.111 701.745,188.716 702.088,189.560 702.341 C 191.540 702.934,192.529 702.933,192.162 702.338 C 191.984 702.050,192.052 701.985,192.345 702.166 C 192.602 702.325,192.725 702.598,192.617 702.773 C 192.509 702.948,193.361 703.204,194.510 703.342 C 197.475 703.698,206.085 703.661,205.857 703.293 C 205.753 703.124,206.396 703.055,207.286 703.140 C 208.347 703.241,208.816 703.149,208.646 702.875 C 208.504 702.644,208.598 702.325,208.855 702.166 C 209.148 701.985,209.216 702.050,209.038 702.338 C 208.644 702.977,209.651 702.924,212.244 702.170 C 213.435 701.824,214.309 701.376,214.184 701.175 C 214.060 700.974,214.212 700.906,214.521 701.025 C 215.577 701.430,219.623 699.338,219.359 698.524 C 219.183 697.981,219.221 697.935,219.511 698.341 C 220.076 699.131,221.649 698.234,221.347 697.294 C 221.174 696.755,221.212 696.723,221.518 697.151 C 222.036 697.878,222.827 697.366,222.545 696.487 C 222.366 695.929,222.401 695.908,222.732 696.374 C 223.279 697.146,224.445 696.231,224.138 695.271 C 223.957 694.701,223.988 694.690,224.346 695.197 C 224.783 695.817,225.809 695.013,229.444 691.200 C 230.722 689.859,231.242 688.879,230.400 689.400 C 230.180 689.536,230.000 689.437,230.000 689.181 C 230.000 688.924,230.271 688.818,230.602 688.945 C 231.518 689.297,233.559 686.089,232.774 685.531 C 232.312 685.204,232.336 685.168,232.900 685.350 C 233.711 685.611,235.817 681.942,235.432 680.939 C 235.309 680.620,235.373 680.459,235.572 680.583 C 236.050 680.878,236.942 678.153,236.567 677.546 C 236.385 677.252,236.449 677.183,236.738 677.362 C 237.012 677.531,237.200 677.393,237.200 677.024 C 237.200 676.681,237.009 676.400,236.776 676.400 C 236.543 676.400,236.466 676.217,236.604 675.993 C 236.742 675.770,236.999 675.676,237.174 675.784 C 237.815 676.180,238.400 671.322,238.396 665.633 C 238.391 659.535,238.120 656.679,237.577 657.014 C 237.400 657.124,237.125 657.002,236.966 656.745 C 236.785 656.452,236.850 656.384,237.138 656.562 C 237.432 656.743,237.600 656.539,237.600 656.000 C 237.600 655.534,237.432 655.256,237.228 655.383 C 237.023 655.509,236.725 655.402,236.566 655.145 C 236.373 654.832,236.451 654.784,236.801 655.000 C 237.699 655.556,236.957 653.024,235.025 648.946 C 233.567 645.868,233.124 645.247,232.526 645.440 C 231.972 645.620,231.930 645.583,232.351 645.282 C 232.657 645.065,232.768 644.672,232.601 644.402 C 232.369 644.027,232.219 644.040,231.949 644.457 C 231.704 644.835,231.628 644.697,231.699 644.000 C 231.780 643.202,231.638 643.024,231.000 643.117 C 230.360 643.210,230.317 643.155,230.784 642.841 C 231.491 642.366,231.063 641.783,227.420 638.261 C 223.609 634.578,222.415 633.745,221.930 634.428 C 221.604 634.888,221.568 634.864,221.749 634.303 C 221.994 633.538,219.905 632.164,219.178 632.613 C 218.959 632.749,218.830 632.621,218.890 632.330 C 218.956 632.011,218.649 631.812,218.120 631.830 C 217.636 631.846,217.319 631.732,217.415 631.576 C 217.686 631.138,215.310 630.285,214.762 630.623 C 214.460 630.810,214.380 630.756,214.550 630.481 C 214.719 630.208,214.208 629.855,213.209 629.555 C 212.321 629.289,211.701 628.966,211.831 628.836 C 211.960 628.706,250.617 628.510,297.733 628.400 L 383.400 628.200 385.739 627.016 C 389.150 625.289,391.275 623.224,393.041 619.918 L 394.600 617.000 394.661 399.200 C 394.695 279.410,394.584 181.850,394.415 182.400 C 394.123 183.350,394.091 183.360,393.754 182.600 C 393.401 181.802,393.015 181.800,199.300 181.800 L 5.200 181.800 5.200 398.258 M226.757 211.324 C 232.547 215.156,232.519 224.817,226.709 228.311 C 223.026 230.526,227.464 230.431,132.600 230.311 L 45.400 230.200 43.092 229.067 C 34.588 224.891,35.175 212.100,43.951 210.372 C 44.748 210.215,85.823 210.112,135.229 210.143 L 225.059 210.200 226.757 211.324 M124.200 259.129 C 130.295 262.670,130.687 272.331,124.886 276.070 C 121.202 278.444,120.871 278.461,81.400 278.325 L 45.400 278.200 43.092 277.067 C 34.686 272.939,35.112 260.465,43.731 258.379 C 44.429 258.210,62.460 258.101,83.800 258.136 L 122.600 258.200 124.200 259.129 M218.600 290.868 C 221.834 292.668,224.724 297.385,224.271 300.121 C 223.517 304.665,222.515 306.447,219.854 307.969 L 217.703 309.200 130.459 309.200 C 34.464 309.200,41.030 309.370,39.228 306.840 C 34.869 300.718,37.280 291.933,43.746 290.379 C 46.677 289.674,217.313 290.152,218.600 290.868 M193.018 322.952 C 201.693 328.468,200.204 338.911,190.338 341.749 C 186.457 342.866,47.944 342.731,44.342 341.607 C 34.623 338.574,34.192 324.678,43.746 322.378 C 46.963 321.604,191.773 322.160,193.018 322.952 M297.400 322.447 C 303.205 324.055,305.855 333.303,301.856 338.000 C 297.987 342.544,298.727 342.474,256.000 342.325 L 220.200 342.200 217.896 341.069 C 214.048 339.179,212.379 336.418,211.719 330.847 C 211.330 327.566,214.782 323.277,218.531 322.384 C 220.663 321.876,295.554 321.936,297.400 322.447 M123.980 389.390 C 130.169 392.590,130.700 402.606,124.887 406.507 C 121.434 408.825,120.836 408.855,81.400 408.722 L 45.400 408.600 43.092 407.467 C 35.097 403.541,34.914 392.026,42.800 389.087 C 44.368 388.503,122.830 388.795,123.980 389.390 M264.406 425.141 C 267.537 426.805,270.136 432.235,269.237 435.235 C 268.997 436.037,268.800 437.087,268.800 437.570 C 268.800 439.843,265.263 442.750,261.268 443.760 C 258.131 444.553,47.950 444.756,45.000 443.969 C 38.977 442.362,35.048 434.610,37.658 429.484 C 38.518 427.794,38.786 427.532,41.728 425.500 L 43.320 424.400 153.166 424.400 C 259.318 424.400,263.059 424.425,264.406 425.141 M198.073 462.814 C 200.255 463.420,202.827 466.485,203.697 469.515 C 205.394 475.431,202.209 480.386,195.716 481.929 L 192.053 482.800 119.910 482.800 C 41.385 482.800,45.157 482.906,41.669 480.598 C 38.834 478.722,37.431 475.928,36.925 471.153 C 36.590 467.988,38.994 464.692,42.862 463.013 C 44.530 462.288,195.485 462.095,198.073 462.814 M124.745 499.316 C 132.285 504.306,129.906 515.161,120.738 517.600 C 116.012 518.857,48.665 518.826,44.583 517.566 C 36.846 515.176,34.190 505.117,40.053 500.406 C 43.165 497.904,40.972 498.019,83.829 498.114 L 123.059 498.200 124.745 499.316 M243.000 592.358 C 249.509 595.372,250.233 605.872,244.189 609.607 C 240.385 611.958,239.794 611.991,202.000 611.985 C 180.127 611.982,166.738 611.832,165.600 611.576 C 160.907 610.520,157.533 607.496,156.988 603.857 C 156.834 602.830,156.548 601.892,156.354 601.771 C 154.092 600.374,158.274 593.705,162.466 592.025 C 164.505 591.208,241.200 591.525,243.000 592.358 M111.400 633.741 C 110.300 633.997,109.490 634.324,109.600 634.469 C 109.710 634.615,109.636 634.883,109.436 635.067 C 109.224 635.260,109.192 635.190,109.359 634.900 C 109.551 634.567,109.365 634.400,108.800 634.400 C 108.334 634.400,108.054 634.563,108.177 634.763 C 108.300 634.962,108.056 635.035,107.635 634.925 C 106.407 634.604,102.013 636.746,102.266 637.542 C 102.429 638.054,102.390 638.080,102.089 637.659 C 101.524 636.869,99.951 637.766,100.253 638.706 C 100.426 639.245,100.388 639.277,100.082 638.849 C 99.564 638.122,98.773 638.634,99.055 639.513 C 99.239 640.085,99.206 640.101,98.859 639.610 C 98.401 638.962,98.159 639.131,94.300 642.775 C 92.384 644.585,91.877 645.486,93.021 645.047 C 93.386 644.907,93.538 644.977,93.391 645.215 C 93.253 645.439,92.844 645.571,92.482 645.511 C 91.687 645.377,89.067 649.075,89.379 649.890 C 89.496 650.193,89.432 650.343,89.237 650.223 C 88.783 649.942,88.315 651.138,88.661 651.698 C 88.828 651.968,88.730 652.004,88.394 651.796 C 88.006 651.556,87.935 651.653,88.127 652.155 C 88.276 652.543,88.228 652.741,88.015 652.609 C 87.808 652.482,87.270 653.571,86.820 655.031 C 85.877 658.084,85.823 658.557,86.462 658.162 C 86.750 657.984,86.815 658.052,86.634 658.345 C 86.475 658.602,86.200 658.724,86.023 658.614 C 85.516 658.301,85.209 661.021,85.204 665.880 C 85.200 670.449,85.796 674.573,86.406 674.196 C 86.592 674.081,86.875 674.198,87.034 674.455 C 87.215 674.748,87.150 674.816,86.862 674.638 C 86.294 674.287,86.288 674.582,86.824 676.510 C 87.055 677.341,87.411 677.917,87.617 677.789 C 87.823 677.662,87.891 677.819,87.769 678.138 C 87.488 678.868,89.480 682.848,91.419 685.432 C 94.216 689.160,97.191 691.831,95.949 689.500 C 95.509 688.676,95.527 688.648,96.153 689.164 C 96.529 689.474,96.750 689.952,96.645 690.227 C 96.320 691.074,97.957 692.297,98.462 691.584 C 98.801 691.105,98.835 691.126,98.651 691.699 C 98.332 692.690,100.292 693.999,100.851 693.168 C 101.150 692.725,101.208 692.774,101.117 693.396 C 101.021 694.050,101.568 694.419,104.208 695.476 C 107.939 696.971,111.111 697.627,110.599 696.799 C 110.384 696.451,110.433 696.373,110.745 696.566 C 111.002 696.725,111.124 696.999,111.016 697.174 C 110.771 697.571,114.774 698.400,116.934 698.400 C 119.030 698.400,123.641 697.591,123.440 697.259 C 123.354 697.117,124.209 696.983,125.341 696.963 C 128.404 696.909,137.261 693.070,136.641 692.067 C 136.538 691.899,136.638 691.500,136.864 691.181 C 137.199 690.707,137.234 690.729,137.050 691.300 C 136.708 692.363,137.138 692.159,139.155 690.300 C 142.461 687.253,143.419 685.989,142.770 685.529 C 142.306 685.200,142.325 685.164,142.871 685.338 C 143.831 685.645,144.746 684.479,143.974 683.932 C 143.510 683.602,143.533 683.567,144.094 683.747 C 144.882 684.000,145.810 682.664,145.357 681.930 C 145.203 681.680,145.253 681.585,145.468 681.718 C 145.684 681.852,146.251 681.155,146.730 680.170 C 147.698 678.177,147.833 677.409,147.138 677.838 C 146.850 678.016,146.785 677.948,146.966 677.655 C 147.125 677.398,147.414 677.285,147.609 677.406 C 148.065 677.687,148.926 674.527,148.556 673.929 C 148.396 673.670,148.454 673.586,148.692 673.734 C 149.229 674.065,149.518 672.678,149.846 668.179 C 150.125 664.362,149.751 659.060,149.226 659.384 C 149.055 659.490,149.006 659.104,149.116 658.528 C 149.247 657.843,149.167 657.573,148.886 657.747 C 148.649 657.893,148.325 657.802,148.166 657.545 C 147.985 657.252,148.050 657.184,148.338 657.362 C 148.632 657.543,148.800 657.339,148.800 656.800 C 148.800 656.334,148.665 656.036,148.500 656.137 C 148.335 656.238,148.180 655.844,148.157 655.261 C 148.095 653.770,145.710 648.685,145.216 648.990 C 144.989 649.130,144.901 649.001,145.018 648.699 C 145.357 647.814,142.936 644.781,142.105 645.048 C 141.513 645.239,141.496 645.207,142.000 644.849 C 142.503 644.491,142.290 644.111,140.689 642.511 C 139.089 640.910,138.709 640.697,138.351 641.200 C 137.991 641.707,137.959 641.693,138.147 641.108 C 138.470 640.099,135.709 638.012,135.130 638.828 C 134.803 639.289,134.768 639.265,134.947 638.706 C 135.249 637.766,133.676 636.869,133.111 637.659 C 132.810 638.081,132.770 638.056,132.932 637.547 C 133.178 636.771,130.369 635.325,129.573 635.817 C 129.232 636.028,129.178 635.960,129.401 635.599 C 129.642 635.208,129.505 635.132,128.862 635.300 C 128.387 635.424,128.087 635.383,128.195 635.208 C 128.303 635.034,127.988 634.783,127.496 634.651 C 126.108 634.279,125.524 634.353,125.838 634.862 C 126.016 635.150,125.948 635.215,125.655 635.034 C 125.398 634.875,125.276 634.601,125.384 634.426 C 126.042 633.361,115.302 632.835,111.400 633.741 M277.245 633.818 C 271.409 635.084,266.684 637.161,267.050 638.300 C 267.225 638.842,267.187 638.876,266.882 638.449 C 266.364 637.722,265.573 638.234,265.855 639.113 C 266.027 639.649,265.989 639.678,265.682 639.249 C 265.190 638.558,264.356 639.019,264.660 639.813 C 264.784 640.136,264.676 640.400,264.419 640.400 C 264.163 640.400,264.064 640.220,264.200 640.000 C 264.336 639.780,264.284 639.600,264.086 639.600 C 263.644 639.600,262.120 641.234,262.400 641.408 C 262.760 641.633,260.816 643.964,259.897 644.410 C 259.005 644.843,259.005 644.841,259.800 644.102 C 261.468 642.554,262.578 641.157,261.949 641.398 C 260.632 641.903,257.442 646.051,258.042 646.478 C 258.482 646.792,258.455 646.829,257.913 646.655 C 257.034 646.373,256.522 647.164,257.249 647.682 C 257.678 647.989,257.649 648.027,257.113 647.855 C 256.234 647.573,255.722 648.364,256.449 648.882 C 256.876 649.187,256.843 649.225,256.301 649.051 C 255.491 648.790,253.788 651.671,254.168 652.660 C 254.290 652.980,254.227 653.141,254.028 653.017 C 253.558 652.727,252.655 655.446,252.959 656.237 C 253.086 656.570,253.031 656.743,252.835 656.622 C 252.296 656.289,251.475 660.254,251.714 662.034 C 251.829 662.895,251.761 663.600,251.562 663.600 C 251.363 663.600,251.200 664.590,251.200 665.800 C 251.200 667.010,251.354 668.000,251.541 668.000 C 251.729 668.000,251.794 668.926,251.685 670.059 C 251.550 671.465,251.623 672.033,251.916 671.852 C 252.152 671.706,252.475 671.798,252.634 672.055 C 252.815 672.348,252.750 672.416,252.462 672.238 C 252.177 672.062,252.002 672.230,252.006 672.676 C 252.015 673.743,253.020 676.447,253.303 676.164 C 253.436 676.030,253.440 676.327,253.310 676.823 C 253.133 677.501,253.205 677.644,253.599 677.401 C 253.935 677.193,254.027 677.233,253.854 677.512 C 253.372 678.293,254.784 681.176,255.533 680.937 C 256.082 680.762,256.098 680.797,255.624 681.133 C 254.782 681.730,257.117 685.451,258.228 685.283 C 258.875 685.186,258.903 685.236,258.400 685.594 C 256.863 686.687,269.073 696.195,271.044 695.439 C 271.426 695.292,271.540 695.374,271.358 695.668 C 271.166 695.979,271.351 696.054,271.938 695.900 C 272.413 695.776,272.713 695.817,272.605 695.992 C 272.497 696.166,272.812 696.417,273.304 696.549 C 274.692 696.921,275.276 696.847,274.962 696.338 C 274.784 696.050,274.852 695.985,275.145 696.166 C 275.402 696.325,275.528 696.594,275.423 696.763 C 274.734 697.878,284.084 698.698,287.725 697.841 C 289.223 697.489,290.899 697.200,291.448 697.200 C 291.998 697.200,292.344 697.032,292.217 696.828 C 292.091 696.623,292.198 696.325,292.455 696.166 C 292.748 695.985,292.816 696.050,292.638 696.338 C 292.457 696.632,292.661 696.800,293.200 696.800 C 293.666 696.800,293.946 696.637,293.823 696.437 C 293.700 696.238,293.987 696.176,294.462 696.300 C 295.105 696.468,295.242 696.392,295.001 696.001 C 294.785 695.652,294.832 695.573,295.142 695.764 C 295.725 696.125,297.284 695.660,297.005 695.209 C 296.892 695.025,297.114 694.951,297.499 695.045 C 298.645 695.323,302.418 692.933,302.149 692.099 C 301.995 691.621,302.037 691.556,302.282 691.894 C 302.685 692.451,304.579 691.413,304.220 690.832 C 304.113 690.659,304.290 690.176,304.614 689.759 C 305.119 689.107,305.168 689.099,304.958 689.700 C 304.558 690.849,305.339 690.501,307.016 688.784 C 308.341 687.427,308.498 687.100,307.997 686.746 C 307.493 686.390,307.506 686.358,308.082 686.543 C 309.629 687.038,313.405 680.308,315.051 674.121 C 316.678 668.011,315.553 652.193,313.579 653.413 C 313.412 653.516,313.351 653.286,313.444 652.901 C 313.698 651.848,311.045 647.374,310.251 647.518 C 309.893 647.582,309.600 647.437,309.600 647.194 C 309.600 646.951,309.780 646.864,310.000 647.000 C 310.544 647.336,310.508 646.668,309.951 646.111 C 309.704 645.864,309.209 645.755,308.851 645.869 C 308.299 646.044,308.289 646.012,308.790 645.659 C 309.419 645.214,307.844 643.002,307.187 643.408 C 307.024 643.509,306.668 643.323,306.396 642.996 C 306.124 642.668,306.042 642.400,306.213 642.400 C 306.656 642.400,305.207 640.861,303.859 639.900 C 302.907 639.222,302.651 639.179,302.321 639.643 C 302.011 640.079,301.973 640.048,302.149 639.501 C 302.470 638.502,300.513 637.208,299.928 638.032 C 299.605 638.487,299.569 638.462,299.747 637.906 C 300.005 637.104,298.673 636.210,297.748 636.565 C 297.424 636.689,297.256 636.634,297.374 636.442 C 297.612 636.057,296.438 635.515,293.400 634.607 C 290.968 633.879,289.847 633.828,290.238 634.462 C 290.416 634.750,290.348 634.815,290.055 634.634 C 289.798 634.475,289.676 634.200,289.786 634.023 C 290.357 633.099,281.248 632.950,277.245 633.818 M229.347 641.175 C 229.121 641.417,225.636 637.982,225.111 637.000 C 224.876 636.560,225.770 637.280,227.097 638.600 C 228.424 639.920,229.437 641.079,229.347 641.175 M140.401 688.598 C 139.886 689.148,139.375 689.509,139.268 689.401 C 139.002 689.135,140.421 687.600,140.932 687.600 C 141.156 687.600,140.917 688.049,140.401 688.598 M227.807 692.393 C 226.952 693.269,226.152 693.885,226.030 693.763 C 225.809 693.542,228.674 690.800,229.125 690.800 C 229.256 690.800,228.663 691.517,227.807 692.393 " stroke="none" fill="#ffffff" fill-rule="evenodd"></path><path id="path1" d="M285.735 11.700 C 285.563 11.975,285.383 12.461,285.335 12.780 C 285.219 13.546,283.535 14.800,283.011 14.510 C 282.785 14.385,282.825 14.525,283.099 14.821 C 283.732 15.502,286.374 13.121,286.286 11.949 C 286.220 11.066,286.151 11.034,285.735 11.700 M320.193 11.612 C 320.035 11.868,320.167 12.339,320.487 12.659 C 320.997 13.168,321.062 13.139,321.009 12.429 C 320.933 11.389,320.561 11.016,320.193 11.612 M121.070 12.500 C 121.245 12.775,121.391 13.163,121.394 13.362 C 121.397 13.561,121.734 13.773,122.142 13.833 C 122.803 13.930,122.785 13.835,121.973 12.971 C 120.986 11.920,120.562 11.699,121.070 12.500 M82.998 49.197 C 83.381 49.621,83.891 49.930,84.129 49.884 C 84.368 49.838,84.572 50.010,84.582 50.267 C 84.614 51.081,85.030 51.198,85.089 50.410 C 85.156 49.523,84.439 48.839,83.191 48.598 C 82.335 48.433,82.328 48.457,82.998 49.197 M121.111 49.507 C 120.074 50.756,120.478 51.275,121.628 50.173 C 122.273 49.555,122.800 49.024,122.800 48.992 C 122.800 48.664,121.476 49.067,121.111 49.507 M20.610 74.416 C 20.777 74.686,20.503 74.741,19.831 74.572 C 18.530 74.245,15.899 74.713,16.210 75.216 C 16.337 75.422,16.178 75.490,15.857 75.366 C 15.113 75.081,12.696 76.308,13.008 76.812 C 13.136 77.021,12.974 77.088,12.647 76.963 C 12.046 76.732,8.400 79.747,8.400 80.475 C 8.400 80.680,8.608 80.719,8.862 80.562 C 9.150 80.384,9.215 80.452,9.034 80.745 C 8.875 81.002,8.586 81.115,8.392 80.995 C 7.910 80.697,7.095 82.307,7.443 82.870 C 7.628 83.169,7.543 83.212,7.194 82.996 C 6.806 82.756,6.735 82.853,6.927 83.355 C 7.073 83.733,7.026 83.940,6.824 83.815 C 6.349 83.521,5.861 85.051,6.236 85.658 C 6.427 85.968,6.348 86.015,5.999 85.800 C 5.589 85.546,5.532 85.772,5.737 86.838 C 5.922 87.799,5.883 88.023,5.605 87.600 C 5.345 87.204,5.243 103.153,5.305 134.400 L 5.400 181.800 199.400 181.800 C 393.015 181.800,393.401 181.802,393.754 182.600 C 394.091 183.360,394.123 183.350,394.414 182.400 C 394.838 181.014,394.882 86.702,394.458 86.964 C 394.270 87.081,394.206 86.704,394.316 86.128 C 394.453 85.412,394.373 85.170,394.063 85.361 C 393.789 85.530,393.689 85.434,393.810 85.117 C 394.088 84.394,392.304 80.978,391.710 81.095 C 391.446 81.148,391.320 80.953,391.432 80.662 C 391.886 79.478,385.505 74.844,384.140 75.368 C 383.771 75.509,383.662 75.423,383.842 75.132 C 384.034 74.821,383.849 74.746,383.262 74.900 C 382.714 75.043,382.494 74.972,382.659 74.704 C 382.834 74.421,382.310 74.351,381.067 74.491 C 380.048 74.606,379.312 74.543,379.431 74.350 C 379.554 74.150,302.572 74.000,200.000 74.000 C 75.722 74.000,20.432 74.128,20.610 74.416 M174.400 103.165 C 175.170 103.165,191.820 103.071,211.400 102.955 C 245.942 102.750,253.555 102.877,252.359 103.634 C 251.957 103.888,252.116 103.989,252.924 103.994 C 253.672 103.998,253.952 104.155,253.761 104.463 C 253.565 104.780,253.747 104.855,254.338 104.700 C 254.847 104.567,255.102 104.635,254.960 104.864 C 254.828 105.078,255.049 105.196,255.451 105.127 C 255.853 105.057,256.186 105.195,256.191 105.433 C 256.203 105.998,258.664 108.802,258.922 108.544 C 259.031 108.436,259.110 108.584,259.097 108.873 C 259.039 110.208,259.227 111.231,259.500 111.063 C 259.665 110.962,259.800 111.835,259.800 113.002 C 259.800 114.169,259.668 114.916,259.506 114.662 C 259.344 114.407,259.210 114.749,259.206 115.426 C 259.201 116.359,258.729 117.121,257.229 118.611 C 256.145 119.689,255.344 120.710,255.450 120.880 C 255.555 121.051,255.333 121.072,254.955 120.927 C 254.534 120.766,254.367 120.823,254.522 121.074 C 254.681 121.331,254.385 121.410,253.728 121.284 C 253.112 121.166,252.779 121.243,252.919 121.470 C 253.061 121.699,252.656 121.782,251.922 121.674 C 250.986 121.537,250.764 121.618,251.005 122.008 C 251.202 122.326,251.164 122.425,250.908 122.267 C 250.679 122.125,215.634 122.003,173.029 121.995 C 129.187 121.987,95.658 121.829,95.780 121.632 C 96.063 121.174,94.859 120.722,94.264 121.063 C 94.009 121.209,93.935 121.179,94.101 120.997 C 94.266 120.814,94.103 120.335,93.739 119.932 C 93.044 119.164,92.174 118.911,92.600 119.600 C 93.002 120.251,92.543 120.056,91.949 119.323 C 91.576 118.863,91.560 118.743,91.900 118.947 C 92.698 119.426,92.482 118.813,91.400 117.527 C 90.850 116.873,90.400 115.892,90.400 115.346 C 90.400 114.697,90.240 114.452,89.938 114.638 C 89.661 114.810,89.585 114.748,89.747 114.485 C 89.896 114.244,89.863 113.053,89.672 111.839 C 89.441 110.365,89.461 109.714,89.731 109.881 C 89.984 110.037,90.027 109.848,89.847 109.378 C 89.688 108.963,89.686 108.753,89.843 108.910 C 90.091 109.158,91.378 107.747,91.403 107.200 C 91.430 106.618,92.092 106.060,92.549 106.236 C 92.836 106.346,93.326 106.124,93.636 105.741 C 94.118 105.148,94.118 105.096,93.638 105.385 C 93.265 105.610,93.169 105.574,93.351 105.279 C 93.502 105.035,93.919 104.948,94.278 105.085 C 94.740 105.263,94.839 105.186,94.616 104.825 C 94.379 104.442,94.526 104.386,95.200 104.600 C 95.813 104.795,96.013 104.745,95.826 104.443 C 95.651 104.160,95.958 103.998,96.676 103.994 C 97.505 103.989,97.649 103.893,97.226 103.625 C 96.164 102.953,99.035 102.909,136.200 103.037 C 156.440 103.107,173.630 103.164,174.400 103.165 M57.600 105.647 C 57.600 105.896,57.953 106.001,58.401 105.884 C 58.910 105.751,59.104 105.831,58.935 106.105 C 58.765 106.380,58.917 106.441,59.355 106.273 C 59.818 106.095,59.948 106.160,59.755 106.473 C 59.562 106.785,59.693 106.850,60.155 106.673 C 60.533 106.527,60.740 106.574,60.615 106.776 C 60.317 107.258,61.849 107.735,62.496 107.362 C 62.773 107.202,62.868 107.218,62.706 107.396 C 62.345 107.796,64.339 108.885,64.852 108.568 C 65.054 108.443,65.170 108.579,65.110 108.870 C 65.049 109.163,65.311 109.375,65.696 109.345 C 66.091 109.314,66.279 109.473,66.130 109.713 C 65.966 109.979,66.123 110.038,66.555 109.873 C 66.933 109.728,67.144 109.767,67.025 109.959 C 66.749 110.406,67.850 111.340,68.314 111.053 C 68.507 110.934,69.639 111.844,70.832 113.075 C 72.024 114.306,72.775 115.187,72.500 115.033 C 71.803 114.643,71.877 115.047,72.671 115.975 C 73.041 116.406,73.518 116.650,73.733 116.518 C 73.948 116.385,74.004 116.471,73.857 116.708 C 73.491 117.300,74.419 119.235,74.920 118.926 C 75.142 118.789,75.204 118.871,75.057 119.108 C 74.720 119.653,75.600 121.647,76.054 121.367 C 76.239 121.252,76.272 121.467,76.127 121.845 C 75.964 122.270,76.022 122.434,76.279 122.275 C 76.558 122.102,76.719 124.101,76.769 128.372 L 76.844 134.727 74.842 138.717 C 73.741 140.911,72.966 142.832,73.120 142.987 C 73.274 143.141,73.130 143.207,72.800 143.133 C 72.468 143.060,72.249 143.236,72.310 143.530 C 72.370 143.821,72.265 143.964,72.076 143.847 C 71.734 143.636,68.367 146.813,68.258 147.451 C 68.226 147.634,68.017 147.788,67.794 147.792 C 66.957 147.808,63.213 150.497,63.463 150.903 C 63.608 151.136,63.534 151.206,63.298 151.061 C 62.694 150.687,61.553 151.200,61.864 151.704 C 62.014 151.946,61.932 152.005,61.670 151.843 C 61.167 151.532,57.939 152.378,58.175 152.759 C 58.257 152.892,55.928 153.000,53.000 153.000 C 50.072 153.000,47.741 152.895,47.820 152.767 C 47.899 152.639,47.014 152.235,45.854 151.870 C 44.693 151.504,42.907 150.650,41.883 149.972 C 40.859 149.294,39.833 148.856,39.601 148.999 C 39.370 149.142,39.230 149.021,39.290 148.730 C 39.352 148.429,39.086 148.226,38.673 148.260 C 38.274 148.293,38.054 148.213,38.185 148.081 C 38.316 147.950,37.172 146.573,35.642 145.021 C 33.634 142.986,32.350 141.203,31.030 138.618 L 29.200 135.036 29.200 129.311 L 29.200 123.585 31.180 119.640 C 32.269 117.469,33.080 115.613,32.982 115.515 C 32.884 115.417,33.297 114.901,33.902 114.368 L 35.000 113.400 34.004 114.600 C 33.082 115.710,33.118 115.698,34.484 114.441 C 35.296 113.693,35.924 112.891,35.880 112.659 C 35.836 112.426,36.070 112.220,36.400 112.200 C 36.730 112.180,36.955 111.947,36.900 111.682 C 36.845 111.417,37.025 111.245,37.300 111.300 C 37.575 111.355,37.762 111.196,37.716 110.947 C 37.669 110.698,37.939 110.518,38.316 110.547 C 38.692 110.576,38.951 110.362,38.890 110.070 C 38.830 109.779,38.961 109.652,39.182 109.789 C 39.733 110.129,41.280 109.253,40.981 108.770 C 40.849 108.556,40.889 108.406,41.070 108.437 C 41.852 108.573,42.430 108.373,42.223 108.037 C 42.100 107.838,42.387 107.776,42.862 107.900 C 43.505 108.068,43.642 107.992,43.401 107.601 C 43.185 107.252,43.232 107.173,43.542 107.364 C 44.149 107.739,45.679 107.251,45.385 106.776 C 45.260 106.574,45.467 106.527,45.845 106.673 C 46.307 106.850,46.438 106.785,46.245 106.473 C 46.052 106.160,46.182 106.095,46.645 106.273 C 47.083 106.441,47.235 106.380,47.065 106.105 C 46.896 105.831,47.090 105.751,47.599 105.884 C 48.047 106.001,48.400 105.896,48.400 105.647 C 48.400 105.344,49.880 105.200,53.000 105.200 C 56.120 105.200,57.600 105.344,57.600 105.647 M69.983 112.900 C 70.964 113.945,71.819 114.800,71.883 114.800 C 72.184 114.800,71.866 114.441,70.100 112.783 L 68.200 111.000 69.983 112.900 M173.096 135.851 C 173.588 135.983,173.875 136.279,173.733 136.508 C 173.570 136.772,173.794 136.843,174.338 136.700 C 174.847 136.567,175.102 136.635,174.960 136.864 C 174.828 137.078,174.968 137.196,175.272 137.127 C 175.575 137.057,175.846 137.152,175.873 137.337 C 175.962 137.952,178.116 139.975,178.457 139.765 C 178.640 139.651,178.672 139.867,178.527 140.245 C 178.362 140.677,178.421 140.834,178.687 140.670 C 178.919 140.526,179.102 140.632,179.092 140.904 C 179.044 142.240,179.231 143.228,179.500 143.063 C 179.665 142.962,179.800 143.835,179.800 145.002 C 179.800 146.169,179.668 146.916,179.506 146.662 C 179.344 146.407,179.210 146.749,179.206 147.426 C 179.201 148.359,178.729 149.121,177.229 150.611 C 176.145 151.689,175.344 152.710,175.450 152.880 C 175.555 153.051,175.333 153.072,174.955 152.927 C 174.534 152.766,174.367 152.823,174.522 153.074 C 174.681 153.331,174.385 153.410,173.728 153.284 C 173.112 153.166,172.779 153.243,172.919 153.470 C 173.061 153.699,172.656 153.782,171.922 153.674 C 170.986 153.537,170.764 153.618,171.005 154.008 C 171.199 154.322,171.164 154.425,170.916 154.271 C 170.691 154.133,153.648 154.006,133.042 153.990 C 112.437 153.974,95.671 153.808,95.786 153.622 C 96.065 153.171,94.852 152.726,94.264 153.063 C 94.009 153.209,93.935 153.179,94.101 152.997 C 94.266 152.814,94.103 152.335,93.739 151.932 C 93.044 151.164,92.174 150.911,92.600 151.600 C 93.002 152.251,92.543 152.056,91.949 151.323 C 91.576 150.863,91.560 150.743,91.900 150.947 C 92.698 151.426,92.482 150.813,91.400 149.527 C 90.850 148.873,90.400 147.892,90.400 147.346 C 90.400 146.697,90.240 146.452,89.938 146.638 C 89.661 146.810,89.585 146.748,89.747 146.485 C 89.896 146.244,89.863 145.053,89.672 143.839 C 89.441 142.365,89.461 141.714,89.731 141.881 C 89.984 142.037,90.027 141.848,89.847 141.378 C 89.688 140.963,89.686 140.753,89.843 140.910 C 90.122 141.188,91.157 140.034,91.053 139.561 C 90.941 139.055,92.084 138.057,92.565 138.242 C 92.844 138.349,93.326 138.124,93.636 137.741 C 94.118 137.148,94.118 137.096,93.638 137.385 C 93.265 137.610,93.169 137.574,93.351 137.279 C 93.502 137.035,93.919 136.948,94.278 137.085 C 94.740 137.263,94.839 137.186,94.616 136.825 C 94.379 136.442,94.526 136.386,95.200 136.600 C 95.779 136.784,96.009 136.739,95.845 136.473 C 95.705 136.246,95.907 135.978,96.295 135.877 C 97.358 135.599,172.063 135.574,173.096 135.851 M53.705 153.482 C 53.214 153.577,52.314 153.579,51.705 153.487 C 51.097 153.395,51.500 153.317,52.600 153.314 C 53.700 153.311,54.197 153.387,53.705 153.482 M279.102 633.466 C 279.379 633.577,279.514 633.816,279.402 633.997 C 279.290 634.178,279.595 634.222,280.078 634.095 C 280.974 633.861,280.185 633.249,279.000 633.260 C 278.780 633.262,278.826 633.354,279.102 633.466 M225.016 636.373 C 224.740 636.821,228.633 641.200,229.307 641.200 C 229.535 641.200,229.512 640.976,229.252 640.663 C 229.007 640.368,228.940 639.979,229.103 639.799 C 229.267 639.619,229.177 639.600,228.903 639.757 C 228.338 640.083,226.237 638.187,226.569 637.650 C 226.686 637.461,226.443 637.001,226.030 636.627 C 225.539 636.183,225.189 636.095,225.016 636.373 M173.227 638.571 C 172.546 639.297,172.475 639.518,172.946 639.449 C 173.734 639.333,174.132 638.947,174.243 638.188 C 174.357 637.411,174.295 637.434,173.227 638.571 M96.767 640.020 C 96.458 641.689,96.549 642.023,97.148 641.423 C 97.631 640.941,97.660 640.700,97.283 640.323 C 97.017 640.057,96.785 639.921,96.767 640.020 M261.950 640.976 C 261.923 641.099,261.876 641.335,261.847 641.500 C 261.716 642.243,260.426 643.663,260.077 643.448 C 259.865 643.316,259.482 643.461,259.226 643.769 C 258.552 644.580,259.323 644.869,260.313 644.176 C 261.571 643.295,262.888 641.301,262.407 641.004 C 262.183 640.866,261.978 640.853,261.950 640.976 M306.154 642.167 C 306.295 643.125,307.047 643.772,307.385 643.225 C 307.539 642.975,307.435 642.828,307.148 642.890 C 306.867 642.951,306.628 642.790,306.618 642.533 C 306.608 642.277,306.479 641.945,306.330 641.797 C 306.182 641.648,306.102 641.815,306.154 642.167 M139.890 688.328 C 139.127 689.206,139.104 690.578,139.862 689.948 C 140.153 689.707,140.305 689.370,140.200 689.200 C 139.966 688.821,140.985 687.919,141.297 688.230 C 141.419 688.353,141.615 688.299,141.732 688.110 C 142.134 687.459,140.473 687.656,139.890 688.328 M259.856 687.909 C 259.731 688.112,260.132 688.760,260.748 689.350 C 261.539 690.108,261.867 690.245,261.867 689.818 C 261.867 689.044,260.158 687.421,259.856 687.909 M95.939 689.447 C 96.177 689.913,96.246 690.453,96.093 690.647 C 95.939 690.841,96.073 690.774,96.390 690.497 C 96.887 690.063,96.866 689.899,96.236 689.297 C 95.538 688.630,95.525 688.637,95.939 689.447 M170.601 689.599 C 170.464 689.820,170.408 690.013,170.476 690.030 C 172.405 690.494,172.920 690.307,171.624 689.613 C 171.108 689.337,170.766 689.332,170.601 689.599 M304.413 689.976 C 304.137 690.492,304.132 690.834,304.399 690.999 C 304.853 691.280,304.832 691.312,304.966 690.100 C 305.089 688.997,304.953 688.966,304.413 689.976 M227.478 692.048 C 226.775 692.662,226.179 693.541,226.154 694.001 L 226.107 694.839 227.036 693.966 C 227.547 693.486,227.928 692.893,227.882 692.647 C 227.837 692.401,228.004 692.238,228.252 692.284 C 228.501 692.330,228.997 692.045,229.354 691.651 C 230.457 690.432,228.969 690.747,227.478 692.048 M176.122 694.765 C 176.293 695.885,176.620 696.130,176.691 695.191 C 176.723 694.764,176.580 694.311,176.373 694.184 C 176.167 694.056,176.053 694.318,176.122 694.765 M119.021 697.561 C 118.297 697.844,118.310 697.883,119.204 698.117 C 119.733 698.255,120.248 698.285,120.349 698.184 C 120.450 698.083,120.278 697.997,119.967 697.994 C 119.500 697.989,119.506 697.919,120.000 697.600 C 120.703 697.146,120.139 697.123,119.021 697.561 M280.400 697.556 C 280.896 697.913,280.902 697.989,280.433 697.994 C 280.122 697.997,279.961 698.094,280.075 698.209 C 280.190 698.323,280.715 698.245,281.242 698.034 C 281.769 697.823,281.990 697.639,281.733 697.625 C 281.476 697.611,280.936 697.493,280.533 697.362 C 279.923 697.165,279.901 697.197,280.400 697.556 " stroke="none" fill="#4164e7" fill-rule="evenodd"></path></g></svg>